<mxfile host="Electron" modified="2025-03-21T23:06:35.335Z" agent="Mozilla/5.0 (Windows NT 10.0; Win64; x64) AppleWebKit/537.36 (KHTML, like Gecko) draw.io/21.6.8 Chrome/114.0.5735.289 Electron/25.5.0 Safari/537.36" etag="Xm4SRJ6GRKoG6ktTauJG" version="21.6.8" type="device">
  <diagram id="C5RBs43oDa-KdzZeNtuy" name="Page-1">
    <mxGraphModel dx="1658" dy="820" grid="1" gridSize="10" guides="1" tooltips="1" connect="1" arrows="1" fold="1" page="1" pageScale="1" pageWidth="827" pageHeight="1169" math="0" shadow="0">
      <root>
        <mxCell id="WIyWlLk6GJQsqaUBKTNV-0" />
        <mxCell id="WIyWlLk6GJQsqaUBKTNV-1" parent="WIyWlLk6GJQsqaUBKTNV-0" />
        <mxCell id="6_MXxZeDWkj9Uu0CuDBR-0" value="USER" style="shape=table;startSize=25;container=1;collapsible=0;childLayout=tableLayout;fixedRows=1;rowLines=1;fontStyle=1;align=center;resizeLast=1;" vertex="1" parent="WIyWlLk6GJQsqaUBKTNV-1">
          <mxGeometry x="27" y="369" width="105" height="113" as="geometry" />
        </mxCell>
        <mxCell id="6_MXxZeDWkj9Uu0CuDBR-1" style="shape=tableRow;horizontal=0;startSize=0;swimlaneHead=0;swimlaneBody=0;fillColor=none;collapsible=0;dropTarget=0;points=[[0,0.5],[1,0.5]];portConstraint=eastwest;top=0;left=0;right=0;bottom=0;" vertex="1" parent="6_MXxZeDWkj9Uu0CuDBR-0">
          <mxGeometry y="25" width="105" height="22" as="geometry" />
        </mxCell>
        <mxCell id="6_MXxZeDWkj9Uu0CuDBR-2" value="Long" style="shape=partialRectangle;connectable=0;fillColor=none;top=0;left=0;bottom=0;right=0;align=left;spacingLeft=2;overflow=hidden;fontSize=11;" vertex="1" parent="6_MXxZeDWkj9Uu0CuDBR-1">
          <mxGeometry width="36" height="22" as="geometry">
            <mxRectangle width="36" height="22" as="alternateBounds" />
          </mxGeometry>
        </mxCell>
        <mxCell id="6_MXxZeDWkj9Uu0CuDBR-3" value="id" style="shape=partialRectangle;connectable=0;fillColor=none;top=0;left=0;bottom=0;right=0;align=left;spacingLeft=2;overflow=hidden;fontSize=11;" vertex="1" parent="6_MXxZeDWkj9Uu0CuDBR-1">
          <mxGeometry x="36" width="69" height="22" as="geometry">
            <mxRectangle width="69" height="22" as="alternateBounds" />
          </mxGeometry>
        </mxCell>
        <mxCell id="6_MXxZeDWkj9Uu0CuDBR-4" style="shape=tableRow;horizontal=0;startSize=0;swimlaneHead=0;swimlaneBody=0;fillColor=none;collapsible=0;dropTarget=0;points=[[0,0.5],[1,0.5]];portConstraint=eastwest;top=0;left=0;right=0;bottom=0;" vertex="1" parent="6_MXxZeDWkj9Uu0CuDBR-0">
          <mxGeometry y="47" width="105" height="22" as="geometry" />
        </mxCell>
        <mxCell id="6_MXxZeDWkj9Uu0CuDBR-5" value="String" style="shape=partialRectangle;connectable=0;fillColor=none;top=0;left=0;bottom=0;right=0;align=left;spacingLeft=2;overflow=hidden;fontSize=11;" vertex="1" parent="6_MXxZeDWkj9Uu0CuDBR-4">
          <mxGeometry width="36" height="22" as="geometry">
            <mxRectangle width="36" height="22" as="alternateBounds" />
          </mxGeometry>
        </mxCell>
        <mxCell id="6_MXxZeDWkj9Uu0CuDBR-6" value="name" style="shape=partialRectangle;connectable=0;fillColor=none;top=0;left=0;bottom=0;right=0;align=left;spacingLeft=2;overflow=hidden;fontSize=11;" vertex="1" parent="6_MXxZeDWkj9Uu0CuDBR-4">
          <mxGeometry x="36" width="69" height="22" as="geometry">
            <mxRectangle width="69" height="22" as="alternateBounds" />
          </mxGeometry>
        </mxCell>
        <mxCell id="6_MXxZeDWkj9Uu0CuDBR-7" style="shape=tableRow;horizontal=0;startSize=0;swimlaneHead=0;swimlaneBody=0;fillColor=none;collapsible=0;dropTarget=0;points=[[0,0.5],[1,0.5]];portConstraint=eastwest;top=0;left=0;right=0;bottom=0;" vertex="1" parent="6_MXxZeDWkj9Uu0CuDBR-0">
          <mxGeometry y="69" width="105" height="22" as="geometry" />
        </mxCell>
        <mxCell id="6_MXxZeDWkj9Uu0CuDBR-8" value="String" style="shape=partialRectangle;connectable=0;fillColor=none;top=0;left=0;bottom=0;right=0;align=left;spacingLeft=2;overflow=hidden;fontSize=11;" vertex="1" parent="6_MXxZeDWkj9Uu0CuDBR-7">
          <mxGeometry width="36" height="22" as="geometry">
            <mxRectangle width="36" height="22" as="alternateBounds" />
          </mxGeometry>
        </mxCell>
        <mxCell id="6_MXxZeDWkj9Uu0CuDBR-9" value="email" style="shape=partialRectangle;connectable=0;fillColor=none;top=0;left=0;bottom=0;right=0;align=left;spacingLeft=2;overflow=hidden;fontSize=11;" vertex="1" parent="6_MXxZeDWkj9Uu0CuDBR-7">
          <mxGeometry x="36" width="69" height="22" as="geometry">
            <mxRectangle width="69" height="22" as="alternateBounds" />
          </mxGeometry>
        </mxCell>
        <mxCell id="6_MXxZeDWkj9Uu0CuDBR-10" style="shape=tableRow;horizontal=0;startSize=0;swimlaneHead=0;swimlaneBody=0;fillColor=none;collapsible=0;dropTarget=0;points=[[0,0.5],[1,0.5]];portConstraint=eastwest;top=0;left=0;right=0;bottom=0;" vertex="1" parent="6_MXxZeDWkj9Uu0CuDBR-0">
          <mxGeometry y="91" width="105" height="22" as="geometry" />
        </mxCell>
        <mxCell id="6_MXxZeDWkj9Uu0CuDBR-11" value="String" style="shape=partialRectangle;connectable=0;fillColor=none;top=0;left=0;bottom=0;right=0;align=left;spacingLeft=2;overflow=hidden;fontSize=11;" vertex="1" parent="6_MXxZeDWkj9Uu0CuDBR-10">
          <mxGeometry width="36" height="22" as="geometry">
            <mxRectangle width="36" height="22" as="alternateBounds" />
          </mxGeometry>
        </mxCell>
        <mxCell id="6_MXxZeDWkj9Uu0CuDBR-12" value="address" style="shape=partialRectangle;connectable=0;fillColor=none;top=0;left=0;bottom=0;right=0;align=left;spacingLeft=2;overflow=hidden;fontSize=11;" vertex="1" parent="6_MXxZeDWkj9Uu0CuDBR-10">
          <mxGeometry x="36" width="69" height="22" as="geometry">
            <mxRectangle width="69" height="22" as="alternateBounds" />
          </mxGeometry>
        </mxCell>
        <mxCell id="6_MXxZeDWkj9Uu0CuDBR-13" value="CART" style="shape=table;startSize=25;container=1;collapsible=0;childLayout=tableLayout;fixedRows=1;rowLines=1;fontStyle=1;align=center;resizeLast=1;" vertex="1" parent="WIyWlLk6GJQsqaUBKTNV-1">
          <mxGeometry x="20" y="550" width="119" height="91" as="geometry" />
        </mxCell>
        <mxCell id="6_MXxZeDWkj9Uu0CuDBR-14" style="shape=tableRow;horizontal=0;startSize=0;swimlaneHead=0;swimlaneBody=0;fillColor=none;collapsible=0;dropTarget=0;points=[[0,0.5],[1,0.5]];portConstraint=eastwest;top=0;left=0;right=0;bottom=0;" vertex="1" parent="6_MXxZeDWkj9Uu0CuDBR-13">
          <mxGeometry y="25" width="119" height="22" as="geometry" />
        </mxCell>
        <mxCell id="6_MXxZeDWkj9Uu0CuDBR-15" value="Long" style="shape=partialRectangle;connectable=0;fillColor=none;top=0;left=0;bottom=0;right=0;align=left;spacingLeft=2;overflow=hidden;fontSize=11;" vertex="1" parent="6_MXxZeDWkj9Uu0CuDBR-14">
          <mxGeometry width="36" height="22" as="geometry">
            <mxRectangle width="36" height="22" as="alternateBounds" />
          </mxGeometry>
        </mxCell>
        <mxCell id="6_MXxZeDWkj9Uu0CuDBR-16" value="id" style="shape=partialRectangle;connectable=0;fillColor=none;top=0;left=0;bottom=0;right=0;align=left;spacingLeft=2;overflow=hidden;fontSize=11;" vertex="1" parent="6_MXxZeDWkj9Uu0CuDBR-14">
          <mxGeometry x="36" width="83" height="22" as="geometry">
            <mxRectangle width="83" height="22" as="alternateBounds" />
          </mxGeometry>
        </mxCell>
        <mxCell id="6_MXxZeDWkj9Uu0CuDBR-17" style="shape=tableRow;horizontal=0;startSize=0;swimlaneHead=0;swimlaneBody=0;fillColor=none;collapsible=0;dropTarget=0;points=[[0,0.5],[1,0.5]];portConstraint=eastwest;top=0;left=0;right=0;bottom=0;" vertex="1" parent="6_MXxZeDWkj9Uu0CuDBR-13">
          <mxGeometry y="47" width="119" height="22" as="geometry" />
        </mxCell>
        <mxCell id="6_MXxZeDWkj9Uu0CuDBR-18" value="Long" style="shape=partialRectangle;connectable=0;fillColor=none;top=0;left=0;bottom=0;right=0;align=left;spacingLeft=2;overflow=hidden;fontSize=11;" vertex="1" parent="6_MXxZeDWkj9Uu0CuDBR-17">
          <mxGeometry width="36" height="22" as="geometry">
            <mxRectangle width="36" height="22" as="alternateBounds" />
          </mxGeometry>
        </mxCell>
        <mxCell id="6_MXxZeDWkj9Uu0CuDBR-19" value="user_id" style="shape=partialRectangle;connectable=0;fillColor=none;top=0;left=0;bottom=0;right=0;align=left;spacingLeft=2;overflow=hidden;fontSize=11;" vertex="1" parent="6_MXxZeDWkj9Uu0CuDBR-17">
          <mxGeometry x="36" width="83" height="22" as="geometry">
            <mxRectangle width="83" height="22" as="alternateBounds" />
          </mxGeometry>
        </mxCell>
        <mxCell id="6_MXxZeDWkj9Uu0CuDBR-20" style="shape=tableRow;horizontal=0;startSize=0;swimlaneHead=0;swimlaneBody=0;fillColor=none;collapsible=0;dropTarget=0;points=[[0,0.5],[1,0.5]];portConstraint=eastwest;top=0;left=0;right=0;bottom=0;" vertex="1" parent="6_MXxZeDWkj9Uu0CuDBR-13">
          <mxGeometry y="69" width="119" height="22" as="geometry" />
        </mxCell>
        <mxCell id="6_MXxZeDWkj9Uu0CuDBR-21" value="double" style="shape=partialRectangle;connectable=0;fillColor=none;top=0;left=0;bottom=0;right=0;align=left;spacingLeft=2;overflow=hidden;fontSize=11;" vertex="1" parent="6_MXxZeDWkj9Uu0CuDBR-20">
          <mxGeometry width="36" height="22" as="geometry">
            <mxRectangle width="36" height="22" as="alternateBounds" />
          </mxGeometry>
        </mxCell>
        <mxCell id="6_MXxZeDWkj9Uu0CuDBR-22" value="totalPrice" style="shape=partialRectangle;connectable=0;fillColor=none;top=0;left=0;bottom=0;right=0;align=left;spacingLeft=2;overflow=hidden;fontSize=11;" vertex="1" parent="6_MXxZeDWkj9Uu0CuDBR-20">
          <mxGeometry x="36" width="83" height="22" as="geometry">
            <mxRectangle width="83" height="22" as="alternateBounds" />
          </mxGeometry>
        </mxCell>
        <mxCell id="6_MXxZeDWkj9Uu0CuDBR-23" value="CART_ITEM" style="shape=table;startSize=25;container=1;collapsible=0;childLayout=tableLayout;fixedRows=1;rowLines=1;fontStyle=1;align=center;resizeLast=1;" vertex="1" parent="WIyWlLk6GJQsqaUBKTNV-1">
          <mxGeometry x="22" y="711" width="115" height="113" as="geometry" />
        </mxCell>
        <mxCell id="6_MXxZeDWkj9Uu0CuDBR-24" style="shape=tableRow;horizontal=0;startSize=0;swimlaneHead=0;swimlaneBody=0;fillColor=none;collapsible=0;dropTarget=0;points=[[0,0.5],[1,0.5]];portConstraint=eastwest;top=0;left=0;right=0;bottom=0;" vertex="1" parent="6_MXxZeDWkj9Uu0CuDBR-23">
          <mxGeometry y="25" width="115" height="22" as="geometry" />
        </mxCell>
        <mxCell id="6_MXxZeDWkj9Uu0CuDBR-25" value="Long" style="shape=partialRectangle;connectable=0;fillColor=none;top=0;left=0;bottom=0;right=0;align=left;spacingLeft=2;overflow=hidden;fontSize=11;" vertex="1" parent="6_MXxZeDWkj9Uu0CuDBR-24">
          <mxGeometry width="24" height="22" as="geometry">
            <mxRectangle width="24" height="22" as="alternateBounds" />
          </mxGeometry>
        </mxCell>
        <mxCell id="6_MXxZeDWkj9Uu0CuDBR-26" value="id" style="shape=partialRectangle;connectable=0;fillColor=none;top=0;left=0;bottom=0;right=0;align=left;spacingLeft=2;overflow=hidden;fontSize=11;" vertex="1" parent="6_MXxZeDWkj9Uu0CuDBR-24">
          <mxGeometry x="24" width="91" height="22" as="geometry">
            <mxRectangle width="91" height="22" as="alternateBounds" />
          </mxGeometry>
        </mxCell>
        <mxCell id="6_MXxZeDWkj9Uu0CuDBR-27" style="shape=tableRow;horizontal=0;startSize=0;swimlaneHead=0;swimlaneBody=0;fillColor=none;collapsible=0;dropTarget=0;points=[[0,0.5],[1,0.5]];portConstraint=eastwest;top=0;left=0;right=0;bottom=0;" vertex="1" parent="6_MXxZeDWkj9Uu0CuDBR-23">
          <mxGeometry y="47" width="115" height="22" as="geometry" />
        </mxCell>
        <mxCell id="6_MXxZeDWkj9Uu0CuDBR-28" value="Long" style="shape=partialRectangle;connectable=0;fillColor=none;top=0;left=0;bottom=0;right=0;align=left;spacingLeft=2;overflow=hidden;fontSize=11;" vertex="1" parent="6_MXxZeDWkj9Uu0CuDBR-27">
          <mxGeometry width="24" height="22" as="geometry">
            <mxRectangle width="24" height="22" as="alternateBounds" />
          </mxGeometry>
        </mxCell>
        <mxCell id="6_MXxZeDWkj9Uu0CuDBR-29" value="cart_id" style="shape=partialRectangle;connectable=0;fillColor=none;top=0;left=0;bottom=0;right=0;align=left;spacingLeft=2;overflow=hidden;fontSize=11;" vertex="1" parent="6_MXxZeDWkj9Uu0CuDBR-27">
          <mxGeometry x="24" width="91" height="22" as="geometry">
            <mxRectangle width="91" height="22" as="alternateBounds" />
          </mxGeometry>
        </mxCell>
        <mxCell id="6_MXxZeDWkj9Uu0CuDBR-30" style="shape=tableRow;horizontal=0;startSize=0;swimlaneHead=0;swimlaneBody=0;fillColor=none;collapsible=0;dropTarget=0;points=[[0,0.5],[1,0.5]];portConstraint=eastwest;top=0;left=0;right=0;bottom=0;" vertex="1" parent="6_MXxZeDWkj9Uu0CuDBR-23">
          <mxGeometry y="69" width="115" height="22" as="geometry" />
        </mxCell>
        <mxCell id="6_MXxZeDWkj9Uu0CuDBR-31" value="Long" style="shape=partialRectangle;connectable=0;fillColor=none;top=0;left=0;bottom=0;right=0;align=left;spacingLeft=2;overflow=hidden;fontSize=11;" vertex="1" parent="6_MXxZeDWkj9Uu0CuDBR-30">
          <mxGeometry width="24" height="22" as="geometry">
            <mxRectangle width="24" height="22" as="alternateBounds" />
          </mxGeometry>
        </mxCell>
        <mxCell id="6_MXxZeDWkj9Uu0CuDBR-32" value="product_id" style="shape=partialRectangle;connectable=0;fillColor=none;top=0;left=0;bottom=0;right=0;align=left;spacingLeft=2;overflow=hidden;fontSize=11;" vertex="1" parent="6_MXxZeDWkj9Uu0CuDBR-30">
          <mxGeometry x="24" width="91" height="22" as="geometry">
            <mxRectangle width="91" height="22" as="alternateBounds" />
          </mxGeometry>
        </mxCell>
        <mxCell id="6_MXxZeDWkj9Uu0CuDBR-33" style="shape=tableRow;horizontal=0;startSize=0;swimlaneHead=0;swimlaneBody=0;fillColor=none;collapsible=0;dropTarget=0;points=[[0,0.5],[1,0.5]];portConstraint=eastwest;top=0;left=0;right=0;bottom=0;" vertex="1" parent="6_MXxZeDWkj9Uu0CuDBR-23">
          <mxGeometry y="91" width="115" height="22" as="geometry" />
        </mxCell>
        <mxCell id="6_MXxZeDWkj9Uu0CuDBR-34" value="int" style="shape=partialRectangle;connectable=0;fillColor=none;top=0;left=0;bottom=0;right=0;align=left;spacingLeft=2;overflow=hidden;fontSize=11;" vertex="1" parent="6_MXxZeDWkj9Uu0CuDBR-33">
          <mxGeometry width="24" height="22" as="geometry">
            <mxRectangle width="24" height="22" as="alternateBounds" />
          </mxGeometry>
        </mxCell>
        <mxCell id="6_MXxZeDWkj9Uu0CuDBR-35" value="quantity" style="shape=partialRectangle;connectable=0;fillColor=none;top=0;left=0;bottom=0;right=0;align=left;spacingLeft=2;overflow=hidden;fontSize=11;" vertex="1" parent="6_MXxZeDWkj9Uu0CuDBR-33">
          <mxGeometry x="24" width="91" height="22" as="geometry">
            <mxRectangle width="91" height="22" as="alternateBounds" />
          </mxGeometry>
        </mxCell>
        <mxCell id="6_MXxZeDWkj9Uu0CuDBR-36" value="PRODUCT" style="shape=table;startSize=25;container=1;collapsible=0;childLayout=tableLayout;fixedRows=1;rowLines=1;fontStyle=1;align=center;resizeLast=1;" vertex="1" parent="WIyWlLk6GJQsqaUBKTNV-1">
          <mxGeometry x="215" y="728" width="138" height="179" as="geometry" />
        </mxCell>
        <mxCell id="6_MXxZeDWkj9Uu0CuDBR-37" style="shape=tableRow;horizontal=0;startSize=0;swimlaneHead=0;swimlaneBody=0;fillColor=none;collapsible=0;dropTarget=0;points=[[0,0.5],[1,0.5]];portConstraint=eastwest;top=0;left=0;right=0;bottom=0;" vertex="1" parent="6_MXxZeDWkj9Uu0CuDBR-36">
          <mxGeometry y="25" width="138" height="22" as="geometry" />
        </mxCell>
        <mxCell id="6_MXxZeDWkj9Uu0CuDBR-38" value="Long" style="shape=partialRectangle;connectable=0;fillColor=none;top=0;left=0;bottom=0;right=0;align=left;spacingLeft=2;overflow=hidden;fontSize=11;" vertex="1" parent="6_MXxZeDWkj9Uu0CuDBR-37">
          <mxGeometry width="36" height="22" as="geometry">
            <mxRectangle width="36" height="22" as="alternateBounds" />
          </mxGeometry>
        </mxCell>
        <mxCell id="6_MXxZeDWkj9Uu0CuDBR-39" value="id" style="shape=partialRectangle;connectable=0;fillColor=none;top=0;left=0;bottom=0;right=0;align=left;spacingLeft=2;overflow=hidden;fontSize=11;" vertex="1" parent="6_MXxZeDWkj9Uu0CuDBR-37">
          <mxGeometry x="36" width="102" height="22" as="geometry">
            <mxRectangle width="102" height="22" as="alternateBounds" />
          </mxGeometry>
        </mxCell>
        <mxCell id="6_MXxZeDWkj9Uu0CuDBR-40" style="shape=tableRow;horizontal=0;startSize=0;swimlaneHead=0;swimlaneBody=0;fillColor=none;collapsible=0;dropTarget=0;points=[[0,0.5],[1,0.5]];portConstraint=eastwest;top=0;left=0;right=0;bottom=0;" vertex="1" parent="6_MXxZeDWkj9Uu0CuDBR-36">
          <mxGeometry y="47" width="138" height="22" as="geometry" />
        </mxCell>
        <mxCell id="6_MXxZeDWkj9Uu0CuDBR-41" value="String" style="shape=partialRectangle;connectable=0;fillColor=none;top=0;left=0;bottom=0;right=0;align=left;spacingLeft=2;overflow=hidden;fontSize=11;" vertex="1" parent="6_MXxZeDWkj9Uu0CuDBR-40">
          <mxGeometry width="36" height="22" as="geometry">
            <mxRectangle width="36" height="22" as="alternateBounds" />
          </mxGeometry>
        </mxCell>
        <mxCell id="6_MXxZeDWkj9Uu0CuDBR-42" value="title" style="shape=partialRectangle;connectable=0;fillColor=none;top=0;left=0;bottom=0;right=0;align=left;spacingLeft=2;overflow=hidden;fontSize=11;" vertex="1" parent="6_MXxZeDWkj9Uu0CuDBR-40">
          <mxGeometry x="36" width="102" height="22" as="geometry">
            <mxRectangle width="102" height="22" as="alternateBounds" />
          </mxGeometry>
        </mxCell>
        <mxCell id="6_MXxZeDWkj9Uu0CuDBR-43" style="shape=tableRow;horizontal=0;startSize=0;swimlaneHead=0;swimlaneBody=0;fillColor=none;collapsible=0;dropTarget=0;points=[[0,0.5],[1,0.5]];portConstraint=eastwest;top=0;left=0;right=0;bottom=0;" vertex="1" parent="6_MXxZeDWkj9Uu0CuDBR-36">
          <mxGeometry y="69" width="138" height="22" as="geometry" />
        </mxCell>
        <mxCell id="6_MXxZeDWkj9Uu0CuDBR-44" value="String" style="shape=partialRectangle;connectable=0;fillColor=none;top=0;left=0;bottom=0;right=0;align=left;spacingLeft=2;overflow=hidden;fontSize=11;" vertex="1" parent="6_MXxZeDWkj9Uu0CuDBR-43">
          <mxGeometry width="36" height="22" as="geometry">
            <mxRectangle width="36" height="22" as="alternateBounds" />
          </mxGeometry>
        </mxCell>
        <mxCell id="6_MXxZeDWkj9Uu0CuDBR-45" value="description" style="shape=partialRectangle;connectable=0;fillColor=none;top=0;left=0;bottom=0;right=0;align=left;spacingLeft=2;overflow=hidden;fontSize=11;" vertex="1" parent="6_MXxZeDWkj9Uu0CuDBR-43">
          <mxGeometry x="36" width="102" height="22" as="geometry">
            <mxRectangle width="102" height="22" as="alternateBounds" />
          </mxGeometry>
        </mxCell>
        <mxCell id="6_MXxZeDWkj9Uu0CuDBR-46" style="shape=tableRow;horizontal=0;startSize=0;swimlaneHead=0;swimlaneBody=0;fillColor=none;collapsible=0;dropTarget=0;points=[[0,0.5],[1,0.5]];portConstraint=eastwest;top=0;left=0;right=0;bottom=0;" vertex="1" parent="6_MXxZeDWkj9Uu0CuDBR-36">
          <mxGeometry y="91" width="138" height="22" as="geometry" />
        </mxCell>
        <mxCell id="6_MXxZeDWkj9Uu0CuDBR-47" value="double" style="shape=partialRectangle;connectable=0;fillColor=none;top=0;left=0;bottom=0;right=0;align=left;spacingLeft=2;overflow=hidden;fontSize=11;" vertex="1" parent="6_MXxZeDWkj9Uu0CuDBR-46">
          <mxGeometry width="36" height="22" as="geometry">
            <mxRectangle width="36" height="22" as="alternateBounds" />
          </mxGeometry>
        </mxCell>
        <mxCell id="6_MXxZeDWkj9Uu0CuDBR-48" value="price" style="shape=partialRectangle;connectable=0;fillColor=none;top=0;left=0;bottom=0;right=0;align=left;spacingLeft=2;overflow=hidden;fontSize=11;" vertex="1" parent="6_MXxZeDWkj9Uu0CuDBR-46">
          <mxGeometry x="36" width="102" height="22" as="geometry">
            <mxRectangle width="102" height="22" as="alternateBounds" />
          </mxGeometry>
        </mxCell>
        <mxCell id="6_MXxZeDWkj9Uu0CuDBR-49" style="shape=tableRow;horizontal=0;startSize=0;swimlaneHead=0;swimlaneBody=0;fillColor=none;collapsible=0;dropTarget=0;points=[[0,0.5],[1,0.5]];portConstraint=eastwest;top=0;left=0;right=0;bottom=0;" vertex="1" parent="6_MXxZeDWkj9Uu0CuDBR-36">
          <mxGeometry y="113" width="138" height="22" as="geometry" />
        </mxCell>
        <mxCell id="6_MXxZeDWkj9Uu0CuDBR-50" value="int" style="shape=partialRectangle;connectable=0;fillColor=none;top=0;left=0;bottom=0;right=0;align=left;spacingLeft=2;overflow=hidden;fontSize=11;" vertex="1" parent="6_MXxZeDWkj9Uu0CuDBR-49">
          <mxGeometry width="36" height="22" as="geometry">
            <mxRectangle width="36" height="22" as="alternateBounds" />
          </mxGeometry>
        </mxCell>
        <mxCell id="6_MXxZeDWkj9Uu0CuDBR-51" value="stockQuantity" style="shape=partialRectangle;connectable=0;fillColor=none;top=0;left=0;bottom=0;right=0;align=left;spacingLeft=2;overflow=hidden;fontSize=11;" vertex="1" parent="6_MXxZeDWkj9Uu0CuDBR-49">
          <mxGeometry x="36" width="102" height="22" as="geometry">
            <mxRectangle width="102" height="22" as="alternateBounds" />
          </mxGeometry>
        </mxCell>
        <mxCell id="6_MXxZeDWkj9Uu0CuDBR-52" style="shape=tableRow;horizontal=0;startSize=0;swimlaneHead=0;swimlaneBody=0;fillColor=none;collapsible=0;dropTarget=0;points=[[0,0.5],[1,0.5]];portConstraint=eastwest;top=0;left=0;right=0;bottom=0;" vertex="1" parent="6_MXxZeDWkj9Uu0CuDBR-36">
          <mxGeometry y="135" width="138" height="22" as="geometry" />
        </mxCell>
        <mxCell id="6_MXxZeDWkj9Uu0CuDBR-53" value="double" style="shape=partialRectangle;connectable=0;fillColor=none;top=0;left=0;bottom=0;right=0;align=left;spacingLeft=2;overflow=hidden;fontSize=11;" vertex="1" parent="6_MXxZeDWkj9Uu0CuDBR-52">
          <mxGeometry width="36" height="22" as="geometry">
            <mxRectangle width="36" height="22" as="alternateBounds" />
          </mxGeometry>
        </mxCell>
        <mxCell id="6_MXxZeDWkj9Uu0CuDBR-54" value="rating" style="shape=partialRectangle;connectable=0;fillColor=none;top=0;left=0;bottom=0;right=0;align=left;spacingLeft=2;overflow=hidden;fontSize=11;" vertex="1" parent="6_MXxZeDWkj9Uu0CuDBR-52">
          <mxGeometry x="36" width="102" height="22" as="geometry">
            <mxRectangle width="102" height="22" as="alternateBounds" />
          </mxGeometry>
        </mxCell>
        <mxCell id="6_MXxZeDWkj9Uu0CuDBR-55" style="shape=tableRow;horizontal=0;startSize=0;swimlaneHead=0;swimlaneBody=0;fillColor=none;collapsible=0;dropTarget=0;points=[[0,0.5],[1,0.5]];portConstraint=eastwest;top=0;left=0;right=0;bottom=0;" vertex="1" parent="6_MXxZeDWkj9Uu0CuDBR-36">
          <mxGeometry y="157" width="138" height="22" as="geometry" />
        </mxCell>
        <mxCell id="6_MXxZeDWkj9Uu0CuDBR-56" value="Long" style="shape=partialRectangle;connectable=0;fillColor=none;top=0;left=0;bottom=0;right=0;align=left;spacingLeft=2;overflow=hidden;fontSize=11;" vertex="1" parent="6_MXxZeDWkj9Uu0CuDBR-55">
          <mxGeometry width="36" height="22" as="geometry">
            <mxRectangle width="36" height="22" as="alternateBounds" />
          </mxGeometry>
        </mxCell>
        <mxCell id="6_MXxZeDWkj9Uu0CuDBR-57" value="category_id" style="shape=partialRectangle;connectable=0;fillColor=none;top=0;left=0;bottom=0;right=0;align=left;spacingLeft=2;overflow=hidden;fontSize=11;" vertex="1" parent="6_MXxZeDWkj9Uu0CuDBR-55">
          <mxGeometry x="36" width="102" height="22" as="geometry">
            <mxRectangle width="102" height="22" as="alternateBounds" />
          </mxGeometry>
        </mxCell>
        <mxCell id="6_MXxZeDWkj9Uu0CuDBR-58" value="CATEGORY" style="shape=table;startSize=25;container=1;collapsible=0;childLayout=tableLayout;fixedRows=1;rowLines=1;fontStyle=1;align=center;resizeLast=1;" vertex="1" parent="WIyWlLk6GJQsqaUBKTNV-1">
          <mxGeometry x="234" y="980" width="100" height="69" as="geometry" />
        </mxCell>
        <mxCell id="6_MXxZeDWkj9Uu0CuDBR-59" style="shape=tableRow;horizontal=0;startSize=0;swimlaneHead=0;swimlaneBody=0;fillColor=none;collapsible=0;dropTarget=0;points=[[0,0.5],[1,0.5]];portConstraint=eastwest;top=0;left=0;right=0;bottom=0;" vertex="1" parent="6_MXxZeDWkj9Uu0CuDBR-58">
          <mxGeometry y="25" width="100" height="22" as="geometry" />
        </mxCell>
        <mxCell id="6_MXxZeDWkj9Uu0CuDBR-60" value="Long" style="shape=partialRectangle;connectable=0;fillColor=none;top=0;left=0;bottom=0;right=0;align=left;spacingLeft=2;overflow=hidden;fontSize=11;" vertex="1" parent="6_MXxZeDWkj9Uu0CuDBR-59">
          <mxGeometry width="36" height="22" as="geometry">
            <mxRectangle width="36" height="22" as="alternateBounds" />
          </mxGeometry>
        </mxCell>
        <mxCell id="6_MXxZeDWkj9Uu0CuDBR-61" value="id" style="shape=partialRectangle;connectable=0;fillColor=none;top=0;left=0;bottom=0;right=0;align=left;spacingLeft=2;overflow=hidden;fontSize=11;" vertex="1" parent="6_MXxZeDWkj9Uu0CuDBR-59">
          <mxGeometry x="36" width="64" height="22" as="geometry">
            <mxRectangle width="64" height="22" as="alternateBounds" />
          </mxGeometry>
        </mxCell>
        <mxCell id="6_MXxZeDWkj9Uu0CuDBR-62" style="shape=tableRow;horizontal=0;startSize=0;swimlaneHead=0;swimlaneBody=0;fillColor=none;collapsible=0;dropTarget=0;points=[[0,0.5],[1,0.5]];portConstraint=eastwest;top=0;left=0;right=0;bottom=0;" vertex="1" parent="6_MXxZeDWkj9Uu0CuDBR-58">
          <mxGeometry y="47" width="100" height="22" as="geometry" />
        </mxCell>
        <mxCell id="6_MXxZeDWkj9Uu0CuDBR-63" value="String" style="shape=partialRectangle;connectable=0;fillColor=none;top=0;left=0;bottom=0;right=0;align=left;spacingLeft=2;overflow=hidden;fontSize=11;" vertex="1" parent="6_MXxZeDWkj9Uu0CuDBR-62">
          <mxGeometry width="36" height="22" as="geometry">
            <mxRectangle width="36" height="22" as="alternateBounds" />
          </mxGeometry>
        </mxCell>
        <mxCell id="6_MXxZeDWkj9Uu0CuDBR-64" value="name" style="shape=partialRectangle;connectable=0;fillColor=none;top=0;left=0;bottom=0;right=0;align=left;spacingLeft=2;overflow=hidden;fontSize=11;" vertex="1" parent="6_MXxZeDWkj9Uu0CuDBR-62">
          <mxGeometry x="36" width="64" height="22" as="geometry">
            <mxRectangle width="64" height="22" as="alternateBounds" />
          </mxGeometry>
        </mxCell>
        <mxCell id="6_MXxZeDWkj9Uu0CuDBR-65" value="ORDER" style="shape=table;startSize=25;container=1;collapsible=0;childLayout=tableLayout;fixedRows=1;rowLines=1;fontStyle=1;align=center;resizeLast=1;" vertex="1" parent="WIyWlLk6GJQsqaUBKTNV-1">
          <mxGeometry x="234" y="158" width="149" height="289" as="geometry" />
        </mxCell>
        <mxCell id="6_MXxZeDWkj9Uu0CuDBR-66" style="shape=tableRow;horizontal=0;startSize=0;swimlaneHead=0;swimlaneBody=0;fillColor=none;collapsible=0;dropTarget=0;points=[[0,0.5],[1,0.5]];portConstraint=eastwest;top=0;left=0;right=0;bottom=0;" vertex="1" parent="6_MXxZeDWkj9Uu0CuDBR-65">
          <mxGeometry y="25" width="149" height="22" as="geometry" />
        </mxCell>
        <mxCell id="6_MXxZeDWkj9Uu0CuDBR-67" value="Long" style="shape=partialRectangle;connectable=0;fillColor=none;top=0;left=0;bottom=0;right=0;align=left;spacingLeft=2;overflow=hidden;fontSize=11;" vertex="1" parent="6_MXxZeDWkj9Uu0CuDBR-66">
          <mxGeometry width="36" height="22" as="geometry">
            <mxRectangle width="36" height="22" as="alternateBounds" />
          </mxGeometry>
        </mxCell>
        <mxCell id="6_MXxZeDWkj9Uu0CuDBR-68" value="id" style="shape=partialRectangle;connectable=0;fillColor=none;top=0;left=0;bottom=0;right=0;align=left;spacingLeft=2;overflow=hidden;fontSize=11;" vertex="1" parent="6_MXxZeDWkj9Uu0CuDBR-66">
          <mxGeometry x="36" width="113" height="22" as="geometry">
            <mxRectangle width="113" height="22" as="alternateBounds" />
          </mxGeometry>
        </mxCell>
        <mxCell id="6_MXxZeDWkj9Uu0CuDBR-69" style="shape=tableRow;horizontal=0;startSize=0;swimlaneHead=0;swimlaneBody=0;fillColor=none;collapsible=0;dropTarget=0;points=[[0,0.5],[1,0.5]];portConstraint=eastwest;top=0;left=0;right=0;bottom=0;" vertex="1" parent="6_MXxZeDWkj9Uu0CuDBR-65">
          <mxGeometry y="47" width="149" height="22" as="geometry" />
        </mxCell>
        <mxCell id="6_MXxZeDWkj9Uu0CuDBR-70" value="Long" style="shape=partialRectangle;connectable=0;fillColor=none;top=0;left=0;bottom=0;right=0;align=left;spacingLeft=2;overflow=hidden;fontSize=11;" vertex="1" parent="6_MXxZeDWkj9Uu0CuDBR-69">
          <mxGeometry width="36" height="22" as="geometry">
            <mxRectangle width="36" height="22" as="alternateBounds" />
          </mxGeometry>
        </mxCell>
        <mxCell id="6_MXxZeDWkj9Uu0CuDBR-71" value="user_id" style="shape=partialRectangle;connectable=0;fillColor=none;top=0;left=0;bottom=0;right=0;align=left;spacingLeft=2;overflow=hidden;fontSize=11;" vertex="1" parent="6_MXxZeDWkj9Uu0CuDBR-69">
          <mxGeometry x="36" width="113" height="22" as="geometry">
            <mxRectangle width="113" height="22" as="alternateBounds" />
          </mxGeometry>
        </mxCell>
        <mxCell id="6_MXxZeDWkj9Uu0CuDBR-72" style="shape=tableRow;horizontal=0;startSize=0;swimlaneHead=0;swimlaneBody=0;fillColor=none;collapsible=0;dropTarget=0;points=[[0,0.5],[1,0.5]];portConstraint=eastwest;top=0;left=0;right=0;bottom=0;" vertex="1" parent="6_MXxZeDWkj9Uu0CuDBR-65">
          <mxGeometry y="69" width="149" height="22" as="geometry" />
        </mxCell>
        <mxCell id="6_MXxZeDWkj9Uu0CuDBR-73" value="double" style="shape=partialRectangle;connectable=0;fillColor=none;top=0;left=0;bottom=0;right=0;align=left;spacingLeft=2;overflow=hidden;fontSize=11;" vertex="1" parent="6_MXxZeDWkj9Uu0CuDBR-72">
          <mxGeometry width="36" height="22" as="geometry">
            <mxRectangle width="36" height="22" as="alternateBounds" />
          </mxGeometry>
        </mxCell>
        <mxCell id="6_MXxZeDWkj9Uu0CuDBR-74" value="totalAmount" style="shape=partialRectangle;connectable=0;fillColor=none;top=0;left=0;bottom=0;right=0;align=left;spacingLeft=2;overflow=hidden;fontSize=11;" vertex="1" parent="6_MXxZeDWkj9Uu0CuDBR-72">
          <mxGeometry x="36" width="113" height="22" as="geometry">
            <mxRectangle width="113" height="22" as="alternateBounds" />
          </mxGeometry>
        </mxCell>
        <mxCell id="6_MXxZeDWkj9Uu0CuDBR-75" style="shape=tableRow;horizontal=0;startSize=0;swimlaneHead=0;swimlaneBody=0;fillColor=none;collapsible=0;dropTarget=0;points=[[0,0.5],[1,0.5]];portConstraint=eastwest;top=0;left=0;right=0;bottom=0;" vertex="1" parent="6_MXxZeDWkj9Uu0CuDBR-65">
          <mxGeometry y="91" width="149" height="22" as="geometry" />
        </mxCell>
        <mxCell id="6_MXxZeDWkj9Uu0CuDBR-76" value="String" style="shape=partialRectangle;connectable=0;fillColor=none;top=0;left=0;bottom=0;right=0;align=left;spacingLeft=2;overflow=hidden;fontSize=11;" vertex="1" parent="6_MXxZeDWkj9Uu0CuDBR-75">
          <mxGeometry width="36" height="22" as="geometry">
            <mxRectangle width="36" height="22" as="alternateBounds" />
          </mxGeometry>
        </mxCell>
        <mxCell id="6_MXxZeDWkj9Uu0CuDBR-77" value="paymentMethod" style="shape=partialRectangle;connectable=0;fillColor=none;top=0;left=0;bottom=0;right=0;align=left;spacingLeft=2;overflow=hidden;fontSize=11;" vertex="1" parent="6_MXxZeDWkj9Uu0CuDBR-75">
          <mxGeometry x="36" width="113" height="22" as="geometry">
            <mxRectangle width="113" height="22" as="alternateBounds" />
          </mxGeometry>
        </mxCell>
        <mxCell id="6_MXxZeDWkj9Uu0CuDBR-78" style="shape=tableRow;horizontal=0;startSize=0;swimlaneHead=0;swimlaneBody=0;fillColor=none;collapsible=0;dropTarget=0;points=[[0,0.5],[1,0.5]];portConstraint=eastwest;top=0;left=0;right=0;bottom=0;" vertex="1" parent="6_MXxZeDWkj9Uu0CuDBR-65">
          <mxGeometry y="113" width="149" height="22" as="geometry" />
        </mxCell>
        <mxCell id="6_MXxZeDWkj9Uu0CuDBR-79" value="String" style="shape=partialRectangle;connectable=0;fillColor=none;top=0;left=0;bottom=0;right=0;align=left;spacingLeft=2;overflow=hidden;fontSize=11;" vertex="1" parent="6_MXxZeDWkj9Uu0CuDBR-78">
          <mxGeometry width="36" height="22" as="geometry">
            <mxRectangle width="36" height="22" as="alternateBounds" />
          </mxGeometry>
        </mxCell>
        <mxCell id="6_MXxZeDWkj9Uu0CuDBR-80" value="paymentStatus" style="shape=partialRectangle;connectable=0;fillColor=none;top=0;left=0;bottom=0;right=0;align=left;spacingLeft=2;overflow=hidden;fontSize=11;" vertex="1" parent="6_MXxZeDWkj9Uu0CuDBR-78">
          <mxGeometry x="36" width="113" height="22" as="geometry">
            <mxRectangle width="113" height="22" as="alternateBounds" />
          </mxGeometry>
        </mxCell>
        <mxCell id="6_MXxZeDWkj9Uu0CuDBR-81" style="shape=tableRow;horizontal=0;startSize=0;swimlaneHead=0;swimlaneBody=0;fillColor=none;collapsible=0;dropTarget=0;points=[[0,0.5],[1,0.5]];portConstraint=eastwest;top=0;left=0;right=0;bottom=0;" vertex="1" parent="6_MXxZeDWkj9Uu0CuDBR-65">
          <mxGeometry y="135" width="149" height="22" as="geometry" />
        </mxCell>
        <mxCell id="6_MXxZeDWkj9Uu0CuDBR-82" value="String" style="shape=partialRectangle;connectable=0;fillColor=none;top=0;left=0;bottom=0;right=0;align=left;spacingLeft=2;overflow=hidden;fontSize=11;" vertex="1" parent="6_MXxZeDWkj9Uu0CuDBR-81">
          <mxGeometry width="36" height="22" as="geometry">
            <mxRectangle width="36" height="22" as="alternateBounds" />
          </mxGeometry>
        </mxCell>
        <mxCell id="6_MXxZeDWkj9Uu0CuDBR-83" value="orderStatus" style="shape=partialRectangle;connectable=0;fillColor=none;top=0;left=0;bottom=0;right=0;align=left;spacingLeft=2;overflow=hidden;fontSize=11;" vertex="1" parent="6_MXxZeDWkj9Uu0CuDBR-81">
          <mxGeometry x="36" width="113" height="22" as="geometry">
            <mxRectangle width="113" height="22" as="alternateBounds" />
          </mxGeometry>
        </mxCell>
        <mxCell id="6_MXxZeDWkj9Uu0CuDBR-84" style="shape=tableRow;horizontal=0;startSize=0;swimlaneHead=0;swimlaneBody=0;fillColor=none;collapsible=0;dropTarget=0;points=[[0,0.5],[1,0.5]];portConstraint=eastwest;top=0;left=0;right=0;bottom=0;" vertex="1" parent="6_MXxZeDWkj9Uu0CuDBR-65">
          <mxGeometry y="157" width="149" height="22" as="geometry" />
        </mxCell>
        <mxCell id="6_MXxZeDWkj9Uu0CuDBR-85" value="String" style="shape=partialRectangle;connectable=0;fillColor=none;top=0;left=0;bottom=0;right=0;align=left;spacingLeft=2;overflow=hidden;fontSize=11;" vertex="1" parent="6_MXxZeDWkj9Uu0CuDBR-84">
          <mxGeometry width="36" height="22" as="geometry">
            <mxRectangle width="36" height="22" as="alternateBounds" />
          </mxGeometry>
        </mxCell>
        <mxCell id="6_MXxZeDWkj9Uu0CuDBR-86" value="trackingNumber" style="shape=partialRectangle;connectable=0;fillColor=none;top=0;left=0;bottom=0;right=0;align=left;spacingLeft=2;overflow=hidden;fontSize=11;" vertex="1" parent="6_MXxZeDWkj9Uu0CuDBR-84">
          <mxGeometry x="36" width="113" height="22" as="geometry">
            <mxRectangle width="113" height="22" as="alternateBounds" />
          </mxGeometry>
        </mxCell>
        <mxCell id="6_MXxZeDWkj9Uu0CuDBR-87" style="shape=tableRow;horizontal=0;startSize=0;swimlaneHead=0;swimlaneBody=0;fillColor=none;collapsible=0;dropTarget=0;points=[[0,0.5],[1,0.5]];portConstraint=eastwest;top=0;left=0;right=0;bottom=0;" vertex="1" parent="6_MXxZeDWkj9Uu0CuDBR-65">
          <mxGeometry y="179" width="149" height="22" as="geometry" />
        </mxCell>
        <mxCell id="6_MXxZeDWkj9Uu0CuDBR-88" value="String" style="shape=partialRectangle;connectable=0;fillColor=none;top=0;left=0;bottom=0;right=0;align=left;spacingLeft=2;overflow=hidden;fontSize=11;" vertex="1" parent="6_MXxZeDWkj9Uu0CuDBR-87">
          <mxGeometry width="36" height="22" as="geometry">
            <mxRectangle width="36" height="22" as="alternateBounds" />
          </mxGeometry>
        </mxCell>
        <mxCell id="6_MXxZeDWkj9Uu0CuDBR-89" value="invoiceNumber" style="shape=partialRectangle;connectable=0;fillColor=none;top=0;left=0;bottom=0;right=0;align=left;spacingLeft=2;overflow=hidden;fontSize=11;" vertex="1" parent="6_MXxZeDWkj9Uu0CuDBR-87">
          <mxGeometry x="36" width="113" height="22" as="geometry">
            <mxRectangle width="113" height="22" as="alternateBounds" />
          </mxGeometry>
        </mxCell>
        <mxCell id="6_MXxZeDWkj9Uu0CuDBR-90" style="shape=tableRow;horizontal=0;startSize=0;swimlaneHead=0;swimlaneBody=0;fillColor=none;collapsible=0;dropTarget=0;points=[[0,0.5],[1,0.5]];portConstraint=eastwest;top=0;left=0;right=0;bottom=0;" vertex="1" parent="6_MXxZeDWkj9Uu0CuDBR-65">
          <mxGeometry y="201" width="149" height="22" as="geometry" />
        </mxCell>
        <mxCell id="6_MXxZeDWkj9Uu0CuDBR-91" value="String" style="shape=partialRectangle;connectable=0;fillColor=none;top=0;left=0;bottom=0;right=0;align=left;spacingLeft=2;overflow=hidden;fontSize=11;" vertex="1" parent="6_MXxZeDWkj9Uu0CuDBR-90">
          <mxGeometry width="36" height="22" as="geometry">
            <mxRectangle width="36" height="22" as="alternateBounds" />
          </mxGeometry>
        </mxCell>
        <mxCell id="6_MXxZeDWkj9Uu0CuDBR-92" value="paymentOrderId" style="shape=partialRectangle;connectable=0;fillColor=none;top=0;left=0;bottom=0;right=0;align=left;spacingLeft=2;overflow=hidden;fontSize=11;" vertex="1" parent="6_MXxZeDWkj9Uu0CuDBR-90">
          <mxGeometry x="36" width="113" height="22" as="geometry">
            <mxRectangle width="113" height="22" as="alternateBounds" />
          </mxGeometry>
        </mxCell>
        <mxCell id="6_MXxZeDWkj9Uu0CuDBR-93" style="shape=tableRow;horizontal=0;startSize=0;swimlaneHead=0;swimlaneBody=0;fillColor=none;collapsible=0;dropTarget=0;points=[[0,0.5],[1,0.5]];portConstraint=eastwest;top=0;left=0;right=0;bottom=0;" vertex="1" parent="6_MXxZeDWkj9Uu0CuDBR-65">
          <mxGeometry y="223" width="149" height="22" as="geometry" />
        </mxCell>
        <mxCell id="6_MXxZeDWkj9Uu0CuDBR-94" value="String" style="shape=partialRectangle;connectable=0;fillColor=none;top=0;left=0;bottom=0;right=0;align=left;spacingLeft=2;overflow=hidden;fontSize=11;" vertex="1" parent="6_MXxZeDWkj9Uu0CuDBR-93">
          <mxGeometry width="36" height="22" as="geometry">
            <mxRectangle width="36" height="22" as="alternateBounds" />
          </mxGeometry>
        </mxCell>
        <mxCell id="6_MXxZeDWkj9Uu0CuDBR-95" value="paymentLink" style="shape=partialRectangle;connectable=0;fillColor=none;top=0;left=0;bottom=0;right=0;align=left;spacingLeft=2;overflow=hidden;fontSize=11;" vertex="1" parent="6_MXxZeDWkj9Uu0CuDBR-93">
          <mxGeometry x="36" width="113" height="22" as="geometry">
            <mxRectangle width="113" height="22" as="alternateBounds" />
          </mxGeometry>
        </mxCell>
        <mxCell id="6_MXxZeDWkj9Uu0CuDBR-96" style="shape=tableRow;horizontal=0;startSize=0;swimlaneHead=0;swimlaneBody=0;fillColor=none;collapsible=0;dropTarget=0;points=[[0,0.5],[1,0.5]];portConstraint=eastwest;top=0;left=0;right=0;bottom=0;" vertex="1" parent="6_MXxZeDWkj9Uu0CuDBR-65">
          <mxGeometry y="245" width="149" height="22" as="geometry" />
        </mxCell>
        <mxCell id="6_MXxZeDWkj9Uu0CuDBR-97" value="String" style="shape=partialRectangle;connectable=0;fillColor=none;top=0;left=0;bottom=0;right=0;align=left;spacingLeft=2;overflow=hidden;fontSize=11;" vertex="1" parent="6_MXxZeDWkj9Uu0CuDBR-96">
          <mxGeometry width="36" height="22" as="geometry">
            <mxRectangle width="36" height="22" as="alternateBounds" />
          </mxGeometry>
        </mxCell>
        <mxCell id="6_MXxZeDWkj9Uu0CuDBR-98" value="paymentId" style="shape=partialRectangle;connectable=0;fillColor=none;top=0;left=0;bottom=0;right=0;align=left;spacingLeft=2;overflow=hidden;fontSize=11;" vertex="1" parent="6_MXxZeDWkj9Uu0CuDBR-96">
          <mxGeometry x="36" width="113" height="22" as="geometry">
            <mxRectangle width="113" height="22" as="alternateBounds" />
          </mxGeometry>
        </mxCell>
        <mxCell id="6_MXxZeDWkj9Uu0CuDBR-99" style="shape=tableRow;horizontal=0;startSize=0;swimlaneHead=0;swimlaneBody=0;fillColor=none;collapsible=0;dropTarget=0;points=[[0,0.5],[1,0.5]];portConstraint=eastwest;top=0;left=0;right=0;bottom=0;" vertex="1" parent="6_MXxZeDWkj9Uu0CuDBR-65">
          <mxGeometry y="267" width="149" height="22" as="geometry" />
        </mxCell>
        <mxCell id="6_MXxZeDWkj9Uu0CuDBR-100" value="String" style="shape=partialRectangle;connectable=0;fillColor=none;top=0;left=0;bottom=0;right=0;align=left;spacingLeft=2;overflow=hidden;fontSize=11;" vertex="1" parent="6_MXxZeDWkj9Uu0CuDBR-99">
          <mxGeometry width="36" height="22" as="geometry">
            <mxRectangle width="36" height="22" as="alternateBounds" />
          </mxGeometry>
        </mxCell>
        <mxCell id="6_MXxZeDWkj9Uu0CuDBR-101" value="refundId" style="shape=partialRectangle;connectable=0;fillColor=none;top=0;left=0;bottom=0;right=0;align=left;spacingLeft=2;overflow=hidden;fontSize=11;" vertex="1" parent="6_MXxZeDWkj9Uu0CuDBR-99">
          <mxGeometry x="36" width="113" height="22" as="geometry">
            <mxRectangle width="113" height="22" as="alternateBounds" />
          </mxGeometry>
        </mxCell>
        <mxCell id="6_MXxZeDWkj9Uu0CuDBR-102" value="ORDER_ITEM" style="shape=table;startSize=25;container=1;collapsible=0;childLayout=tableLayout;fixedRows=1;rowLines=1;fontStyle=1;align=center;resizeLast=1;" vertex="1" parent="WIyWlLk6GJQsqaUBKTNV-1">
          <mxGeometry x="299" y="522" width="149" height="135" as="geometry" />
        </mxCell>
        <mxCell id="6_MXxZeDWkj9Uu0CuDBR-103" style="shape=tableRow;horizontal=0;startSize=0;swimlaneHead=0;swimlaneBody=0;fillColor=none;collapsible=0;dropTarget=0;points=[[0,0.5],[1,0.5]];portConstraint=eastwest;top=0;left=0;right=0;bottom=0;" vertex="1" parent="6_MXxZeDWkj9Uu0CuDBR-102">
          <mxGeometry y="25" width="149" height="22" as="geometry" />
        </mxCell>
        <mxCell id="6_MXxZeDWkj9Uu0CuDBR-104" value="Long" style="shape=partialRectangle;connectable=0;fillColor=none;top=0;left=0;bottom=0;right=0;align=left;spacingLeft=2;overflow=hidden;fontSize=11;" vertex="1" parent="6_MXxZeDWkj9Uu0CuDBR-103">
          <mxGeometry width="36" height="22" as="geometry">
            <mxRectangle width="36" height="22" as="alternateBounds" />
          </mxGeometry>
        </mxCell>
        <mxCell id="6_MXxZeDWkj9Uu0CuDBR-105" value="id" style="shape=partialRectangle;connectable=0;fillColor=none;top=0;left=0;bottom=0;right=0;align=left;spacingLeft=2;overflow=hidden;fontSize=11;" vertex="1" parent="6_MXxZeDWkj9Uu0CuDBR-103">
          <mxGeometry x="36" width="113" height="22" as="geometry">
            <mxRectangle width="113" height="22" as="alternateBounds" />
          </mxGeometry>
        </mxCell>
        <mxCell id="6_MXxZeDWkj9Uu0CuDBR-106" style="shape=tableRow;horizontal=0;startSize=0;swimlaneHead=0;swimlaneBody=0;fillColor=none;collapsible=0;dropTarget=0;points=[[0,0.5],[1,0.5]];portConstraint=eastwest;top=0;left=0;right=0;bottom=0;" vertex="1" parent="6_MXxZeDWkj9Uu0CuDBR-102">
          <mxGeometry y="47" width="149" height="22" as="geometry" />
        </mxCell>
        <mxCell id="6_MXxZeDWkj9Uu0CuDBR-107" value="Long" style="shape=partialRectangle;connectable=0;fillColor=none;top=0;left=0;bottom=0;right=0;align=left;spacingLeft=2;overflow=hidden;fontSize=11;" vertex="1" parent="6_MXxZeDWkj9Uu0CuDBR-106">
          <mxGeometry width="36" height="22" as="geometry">
            <mxRectangle width="36" height="22" as="alternateBounds" />
          </mxGeometry>
        </mxCell>
        <mxCell id="6_MXxZeDWkj9Uu0CuDBR-108" value="order_id" style="shape=partialRectangle;connectable=0;fillColor=none;top=0;left=0;bottom=0;right=0;align=left;spacingLeft=2;overflow=hidden;fontSize=11;" vertex="1" parent="6_MXxZeDWkj9Uu0CuDBR-106">
          <mxGeometry x="36" width="113" height="22" as="geometry">
            <mxRectangle width="113" height="22" as="alternateBounds" />
          </mxGeometry>
        </mxCell>
        <mxCell id="6_MXxZeDWkj9Uu0CuDBR-109" style="shape=tableRow;horizontal=0;startSize=0;swimlaneHead=0;swimlaneBody=0;fillColor=none;collapsible=0;dropTarget=0;points=[[0,0.5],[1,0.5]];portConstraint=eastwest;top=0;left=0;right=0;bottom=0;" vertex="1" parent="6_MXxZeDWkj9Uu0CuDBR-102">
          <mxGeometry y="69" width="149" height="22" as="geometry" />
        </mxCell>
        <mxCell id="6_MXxZeDWkj9Uu0CuDBR-110" value="Long" style="shape=partialRectangle;connectable=0;fillColor=none;top=0;left=0;bottom=0;right=0;align=left;spacingLeft=2;overflow=hidden;fontSize=11;" vertex="1" parent="6_MXxZeDWkj9Uu0CuDBR-109">
          <mxGeometry width="36" height="22" as="geometry">
            <mxRectangle width="36" height="22" as="alternateBounds" />
          </mxGeometry>
        </mxCell>
        <mxCell id="6_MXxZeDWkj9Uu0CuDBR-111" value="product_id" style="shape=partialRectangle;connectable=0;fillColor=none;top=0;left=0;bottom=0;right=0;align=left;spacingLeft=2;overflow=hidden;fontSize=11;" vertex="1" parent="6_MXxZeDWkj9Uu0CuDBR-109">
          <mxGeometry x="36" width="113" height="22" as="geometry">
            <mxRectangle width="113" height="22" as="alternateBounds" />
          </mxGeometry>
        </mxCell>
        <mxCell id="6_MXxZeDWkj9Uu0CuDBR-112" style="shape=tableRow;horizontal=0;startSize=0;swimlaneHead=0;swimlaneBody=0;fillColor=none;collapsible=0;dropTarget=0;points=[[0,0.5],[1,0.5]];portConstraint=eastwest;top=0;left=0;right=0;bottom=0;" vertex="1" parent="6_MXxZeDWkj9Uu0CuDBR-102">
          <mxGeometry y="91" width="149" height="22" as="geometry" />
        </mxCell>
        <mxCell id="6_MXxZeDWkj9Uu0CuDBR-113" value="int" style="shape=partialRectangle;connectable=0;fillColor=none;top=0;left=0;bottom=0;right=0;align=left;spacingLeft=2;overflow=hidden;fontSize=11;" vertex="1" parent="6_MXxZeDWkj9Uu0CuDBR-112">
          <mxGeometry width="36" height="22" as="geometry">
            <mxRectangle width="36" height="22" as="alternateBounds" />
          </mxGeometry>
        </mxCell>
        <mxCell id="6_MXxZeDWkj9Uu0CuDBR-114" value="quantity" style="shape=partialRectangle;connectable=0;fillColor=none;top=0;left=0;bottom=0;right=0;align=left;spacingLeft=2;overflow=hidden;fontSize=11;" vertex="1" parent="6_MXxZeDWkj9Uu0CuDBR-112">
          <mxGeometry x="36" width="113" height="22" as="geometry">
            <mxRectangle width="113" height="22" as="alternateBounds" />
          </mxGeometry>
        </mxCell>
        <mxCell id="6_MXxZeDWkj9Uu0CuDBR-115" style="shape=tableRow;horizontal=0;startSize=0;swimlaneHead=0;swimlaneBody=0;fillColor=none;collapsible=0;dropTarget=0;points=[[0,0.5],[1,0.5]];portConstraint=eastwest;top=0;left=0;right=0;bottom=0;" vertex="1" parent="6_MXxZeDWkj9Uu0CuDBR-102">
          <mxGeometry y="113" width="149" height="22" as="geometry" />
        </mxCell>
        <mxCell id="6_MXxZeDWkj9Uu0CuDBR-116" value="double" style="shape=partialRectangle;connectable=0;fillColor=none;top=0;left=0;bottom=0;right=0;align=left;spacingLeft=2;overflow=hidden;fontSize=11;" vertex="1" parent="6_MXxZeDWkj9Uu0CuDBR-115">
          <mxGeometry width="36" height="22" as="geometry">
            <mxRectangle width="36" height="22" as="alternateBounds" />
          </mxGeometry>
        </mxCell>
        <mxCell id="6_MXxZeDWkj9Uu0CuDBR-117" value="priceAtPurchase" style="shape=partialRectangle;connectable=0;fillColor=none;top=0;left=0;bottom=0;right=0;align=left;spacingLeft=2;overflow=hidden;fontSize=11;" vertex="1" parent="6_MXxZeDWkj9Uu0CuDBR-115">
          <mxGeometry x="36" width="113" height="22" as="geometry">
            <mxRectangle width="113" height="22" as="alternateBounds" />
          </mxGeometry>
        </mxCell>
        <mxCell id="6_MXxZeDWkj9Uu0CuDBR-118" value="owns" style="curved=1;startArrow=ERmandOne;startSize=10;;endArrow=ERoneToMany;endSize=10;;exitX=0.5008080618722098;exitY=1;entryX=0.5007129957695969;entryY=0;rounded=0;" edge="1" parent="WIyWlLk6GJQsqaUBKTNV-1" source="6_MXxZeDWkj9Uu0CuDBR-0" target="6_MXxZeDWkj9Uu0CuDBR-13">
          <mxGeometry relative="1" as="geometry">
            <Array as="points" />
          </mxGeometry>
        </mxCell>
        <mxCell id="6_MXxZeDWkj9Uu0CuDBR-119" value="contains" style="curved=1;startArrow=ERmandOne;startSize=10;;endArrow=ERoneToMany;endSize=10;;exitX=0.5007129957695969;exitY=1;entryX=0.5007377956224525;entryY=0;rounded=0;" edge="1" parent="WIyWlLk6GJQsqaUBKTNV-1" source="6_MXxZeDWkj9Uu0CuDBR-13" target="6_MXxZeDWkj9Uu0CuDBR-23">
          <mxGeometry relative="1" as="geometry">
            <Array as="points" />
          </mxGeometry>
        </mxCell>
        <mxCell id="6_MXxZeDWkj9Uu0CuDBR-120" value="contains" style="curved=1;startArrow=ERoneToMany;startSize=10;;endArrow=ERmandOne;endSize=10;;exitX=0.5007377956224525;exitY=1;entryX=0;entryY=0.5;rounded=0;entryDx=0;entryDy=0;" edge="1" parent="WIyWlLk6GJQsqaUBKTNV-1" source="6_MXxZeDWkj9Uu0CuDBR-23" target="6_MXxZeDWkj9Uu0CuDBR-55">
          <mxGeometry relative="1" as="geometry">
            <Array as="points">
              <mxPoint x="130" y="870" />
            </Array>
          </mxGeometry>
        </mxCell>
        <mxCell id="6_MXxZeDWkj9Uu0CuDBR-121" value="has" style="curved=1;startArrow=ERmandOne;startSize=10;;endArrow=ERoneToMany;endSize=10;;entryX=0.4982253721096372;entryY=0;rounded=0;exitX=0.866;exitY=1.136;exitDx=0;exitDy=0;exitPerimeter=0;" edge="1" parent="WIyWlLk6GJQsqaUBKTNV-1" source="6_MXxZeDWkj9Uu0CuDBR-99" target="6_MXxZeDWkj9Uu0CuDBR-102">
          <mxGeometry relative="1" as="geometry">
            <Array as="points" />
          </mxGeometry>
        </mxCell>
        <mxCell id="6_MXxZeDWkj9Uu0CuDBR-122" value="placed_by" style="curved=1;startArrow=ERoneToMany;startSize=10;;endArrow=ERmandOne;endSize=10;;exitX=0;exitY=0.5;entryX=0.5008080618722098;entryY=0;rounded=0;exitDx=0;exitDy=0;" edge="1" parent="WIyWlLk6GJQsqaUBKTNV-1" source="6_MXxZeDWkj9Uu0CuDBR-78" target="6_MXxZeDWkj9Uu0CuDBR-0">
          <mxGeometry relative="1" as="geometry">
            <Array as="points">
              <mxPoint x="80" y="358" />
            </Array>
          </mxGeometry>
        </mxCell>
        <mxCell id="6_MXxZeDWkj9Uu0CuDBR-123" value="contains" style="curved=1;startArrow=ERoneToMany;startSize=10;;endArrow=ERmandOne;endSize=10;;exitX=0.4982253721096372;exitY=1;entryX=1.0042206308116084;entryY=0.03363826169099151;rounded=0;" edge="1" parent="WIyWlLk6GJQsqaUBKTNV-1" source="6_MXxZeDWkj9Uu0CuDBR-102" target="6_MXxZeDWkj9Uu0CuDBR-36">
          <mxGeometry x="-0.3829" y="1" relative="1" as="geometry">
            <Array as="points">
              <mxPoint x="373" y="730" />
            </Array>
            <mxPoint as="offset" />
          </mxGeometry>
        </mxCell>
        <mxCell id="6_MXxZeDWkj9Uu0CuDBR-124" value="belongs_to" style="curved=1;startArrow=ERoneToMany;startSize=10;;endArrow=ERmandOne;endSize=10;;exitX=0.5029725613801376;exitY=1;entryX=0.5041021347045899;entryY=0;rounded=0;" edge="1" parent="WIyWlLk6GJQsqaUBKTNV-1" source="6_MXxZeDWkj9Uu0CuDBR-36" target="6_MXxZeDWkj9Uu0CuDBR-58">
          <mxGeometry relative="1" as="geometry">
            <Array as="points" />
          </mxGeometry>
        </mxCell>
      </root>
    </mxGraphModel>
  </diagram>
</mxfile>
